<?xml version="1.0" standalone="no"?>
<!DOCTYPE svg PUBLIC "-//W3C//DTD SVG 20010904//EN"
 "http://www.w3.org/TR/2001/REC-SVG-20010904/DTD/svg10.dtd">
<svg version="1.0" xmlns="http://www.w3.org/2000/svg"
 width="300.000000pt" height="270.000000pt" viewBox="0 0 300.000000 270.000000"
 preserveAspectRatio="xMidYMid meet">
<metadata>
Created by potrace 1.10, written by Peter Selinger 2001-2011
</metadata>
<g transform="translate(0.000000,270.000000) scale(0.100000,-0.100000)"
fill="#000" stroke="#000">
<path d="M1072 2673 c-17 -7 -368 -474 -389 -518 -15 -31 -13 -48 41 -341 31
-170 62 -321 67 -336 17 -42 54 -70 141 -105 82 -32 99 -34 81 -11 -22 29 -62
150 -84 258 -20 97 -24 145 -24 305 0 165 3 201 22 271 45 164 126 306 240
420 l64 64 -73 -1 c-40 0 -79 -3 -86 -6z m38 -48 c0 -3 -22 -34 -48 -68 -205
-268 -255 -612 -150 -1040 12 -48 18 -90 15 -93 -9 -10 -68 28 -88 56 -12 17
-35 118 -69 305 -29 154 -54 284 -57 288 -3 5 -2 24 2 43 7 42 357 514 380
514 8 0 15 -2 15 -5z"/>
<path d="M1334 2637 c-64 -47 -147 -134 -195 -204 -31 -44 -123 -232 -117
-238 2 -2 41 10 88 25 290 96 524 96 817 1 46 -15 83 -24 83 -21 0 3 -11 34
-24 69 -51 128 -152 264 -264 353 l-73 58 -129 0 -128 0 -58 -43z m363 -45
c113 -89 258 -291 230 -319 -4 -3 -43 4 -89 15 -245 62 -383 63 -620 5 -60
-14 -111 -23 -115 -20 -8 8 38 96 84 159 18 25 70 81 114 122 l81 76 133 0
133 0 49 -38z"/>
<path d="M1871 2613 c219 -230 297 -484 258 -841 -17 -162 -54 -315 -94 -392
-9 -18 -15 -33 -13 -35 3 -3 34 8 140 52 68 29 84 58 113 213 8 47 31 168 50
269 54 283 68 236 -151 528 -102 136 -192 254 -201 261 -10 7 -47 12 -92 12
l-74 0 64 -67z m91 5 c18 -15 307 -400 337 -449 12 -19 21 -50 21 -69 0 -32
-75 -449 -101 -560 -6 -25 -17 -56 -25 -68 -15 -22 -81 -58 -90 -49 -2 2 7 46
20 98 38 147 50 241 50 414 0 261 -51 420 -195 616 -27 37 -49 69 -49 73 0 10
15 7 32 -6z"/>
<path d="M1370 2185 c-87 -15 -127 -25 -267 -67 l-103 -31 0 -174 c0 -95 3
-173 7 -173 3 0 54 24 112 54 304 155 484 157 788 6 65 -32 120 -56 123 -53 3
2 5 80 5 171 l0 167 -40 13 c-266 91 -450 117 -625 87z m280 -40 c52 -9 110
-20 129 -27 30 -9 32 -12 15 -21 -38 -20 -74 -61 -74 -84 0 -33 26 -69 59 -83
62 -25 127 46 101 110 -7 17 -22 37 -34 45 -15 11 -16 15 -5 15 25 0 143 -42
151 -54 11 -16 10 -224 -1 -230 -5 -3 -51 14 -102 38 -275 129 -464 131 -728
5 -58 -27 -108 -46 -113 -41 -5 5 -7 60 -6 123 l3 114 73 24 c40 13 75 21 78
19 3 -3 -6 -17 -20 -31 -47 -47 -21 -127 46 -143 23 -5 34 0 63 29 19 19 35
43 35 54 0 26 -27 61 -62 83 l-30 18 34 10 c29 10 103 24 178 36 56 8 120 5
210 -9z m-386 -101 c30 -29 9 -84 -31 -84 -21 0 -53 29 -53 48 0 22 30 52 51
52 10 0 25 -7 33 -16z m574 4 c7 -7 12 -24 12 -40 0 -50 -66 -62 -91 -17 -23
43 44 92 79 57z"/>
<path d="M111 1874 c-24 -13 -45 -25 -48 -28 -3 -3 52 -122 62 -134 3 -3 86
41 104 54 5 4 -63 134 -69 133 -3 -1 -25 -12 -49 -25z m53 -67 c8 -14 8 -20
-4 -27 -16 -10 -40 12 -40 38 0 18 30 11 44 -11z"/>
<path d="M1414 1806 c-99 -23 -319 -120 -381 -168 -20 -16 48 -223 101 -306
31 -49 41 -57 106 -81 195 -72 419 -67 582 13 61 30 64 34 105 116 24 47 52
122 64 168 26 98 36 85 -116 161 -190 95 -335 126 -461 97z m238 -52 c36 -9
120 -42 187 -74 140 -68 137 -62 93 -187 -44 -126 -75 -171 -136 -198 -67 -31
-188 -55 -275 -55 -149 0 -308 49 -350 109 -26 36 -68 136 -87 204 -11 44 -11
50 6 67 23 23 183 101 255 124 109 35 185 37 307 10z"/>
<path d="M225 1655 c-22 -14 -44 -26 -48 -28 -4 -1 14 -43 41 -92 27 -50 84
-158 126 -242 l78 -152 57 31 c31 17 58 33 60 35 2 1 -1 8 -7 15 -15 19 -242
439 -242 449 0 15 -24 9 -65 -16z m144 -222 c56 -102 101 -195 101 -205 0 -11
-7 -18 -19 -18 -15 0 -42 44 -121 195 -56 107 -98 199 -95 205 17 27 41 -5
134 -177z"/>
<path d="M1040 1133 l-75 -47 180 -303 c99 -166 182 -302 185 -302 3 0 33 43
68 96 l63 96 -168 253 c-92 140 -170 253 -173 253 -3 0 -39 -21 -80 -46z m220
-229 c79 -118 143 -221 143 -229 0 -7 -15 -36 -33 -65 -27 -42 -35 -49 -46
-38 -20 20 -294 481 -294 495 0 12 58 53 76 53 6 0 76 -97 154 -216z"/>
<path d="M1609 723 c-167 -252 -343 -515 -391 -585 l-87 -129 136 3 135 3 334
534 c184 294 334 535 334 537 0 2 -151 94 -155 94 -1 0 -139 -206 -306 -457z
m361 377 c22 -11 40 -24 40 -29 0 -7 -133 -222 -545 -881 -43 -69 -85 -131
-94 -137 -17 -14 -147 -18 -155 -5 -5 8 699 1072 709 1072 3 0 24 -9 45 -20z"/>
<path d="M1288 1103 c16 -21 75 -107 130 -192 l101 -153 87 133 c48 74 105
158 127 187 21 30 37 56 34 58 -2 3 -15 1 -28 -4 -91 -35 -296 -37 -415 -6
-30 8 -57 14 -60 14 -3 0 8 -17 24 -37z m369 -58 c-18 -35 -126 -193 -136
-199 -7 -5 -151 199 -151 214 0 3 67 5 149 5 146 0 149 0 138 -20z"/>
<path d="M525 1090 c-27 -16 -50 -33 -50 -37 0 -15 50 -113 57 -113 4 0 23 10
41 23 19 12 43 27 53 33 17 10 17 14 -11 67 -17 31 -32 57 -35 56 -3 0 -27
-13 -55 -29z m53 -57 c3 -21 -22 -38 -39 -27 -13 8 -11 42 4 47 20 9 32 2 35
-20z"/>
<path d="M860 1026 c-8 -7 -78 -51 -155 -96 -77 -46 -156 -100 -176 -121 -66
-67 -77 -106 -135 -452 -30 -177 -56 -328 -59 -334 -3 -10 43 -13 210 -13
l213 0 6 27 c2 16 13 93 22 173 17 147 29 180 64 180 9 0 25 -9 34 -19 17 -19
17 -27 -3 -181 -12 -89 -21 -166 -21 -171 0 -5 36 -9 80 -9 l79 0 126 189 126
190 -191 316 c-104 174 -190 321 -190 326 0 13 -13 11 -30 -5z m182 -334 c92
-152 169 -284 173 -293 3 -9 -37 -79 -108 -184 l-114 -170 -41 -3 -42 -3 0 39
c0 21 7 89 15 150 8 61 12 120 8 129 -22 64 -99 85 -142 39 -20 -21 -26 -49
-43 -178 -12 -84 -25 -159 -31 -166 -11 -13 -322 -18 -330 -4 -7 11 90 578
108 633 9 27 35 68 58 93 42 45 278 195 307 196 9 0 81 -109 182 -278z"/>
<path d="M1834 524 l-322 -514 335 0 334 0 -5 33 c-11 63 -36 276 -36 301 0
53 83 57 94 4 3 -13 13 -94 23 -180 l18 -158 212 0 c117 0 213 2 213 4 0 2
-24 150 -54 329 -34 203 -63 343 -76 374 -30 70 -96 129 -244 218 -72 42 -139
83 -150 90 -20 13 -35 -9 -342 -501z m483 369 c186 -111 218 -150 247 -303 20
-104 86 -516 86 -536 0 -12 -28 -14 -164 -14 -91 0 -167 4 -170 9 -3 5 -13 65
-21 133 -22 179 -23 183 -50 212 -36 38 -85 36 -120 -6 -30 -36 -30 -19 -5
-232 6 -50 8 -96 6 -103 -4 -10 -62 -13 -271 -13 -169 0 -265 4 -265 10 0 9
538 877 562 908 6 6 16 12 24 12 7 0 71 -35 141 -77z"/>
</g>
</svg>
