<svg xmlns="http://www.w3.org/2000/svg" width="1280" height="300" viewBox="0 0 1280 300" version="1.1"><path d="M 836.613 152.468 L 830.726 154.888 827.772 157.694 L 824.817 160.500 822.708 164.500 L 820.599 168.500 820.195 179.072 L 819.791 189.643 822.015 194.813 L 824.239 199.983 828.060 203.435 L 831.881 206.887 837.122 208.444 L 842.363 210 848.213 210 L 854.063 210 860.282 207.918 L 866.500 205.836 868.870 203.668 L 871.239 201.500 873.466 198 L 875.693 194.500 876.971 189.146 L 878.250 183.791 877.781 176.646 L 877.312 169.500 874.720 164.410 L 872.128 159.320 868.578 156.203 L 865.028 153.086 859.833 151.543 L 854.637 150 848.568 150.024 L 842.500 150.047 836.613 152.468 M 319.226 152.750 L 318.515 154.500 318.507 181.500 L 318.500 208.500 327.500 208.500 L 336.500 208.500 337 193 L 337.500 177.500 338.222 179 L 338.943 180.500 341.518 192.500 L 344.093 204.500 345.042 206.788 L 345.991 209.075 355.246 208.788 L 364.500 208.500 366.742 199 L 368.984 189.500 369.890 186.500 L 370.796 183.500 370.898 193.685 L 371 203.870 371.990 206.473 L 372.979 209.075 382.240 208.788 L 391.500 208.500 391.766 181.122 L 392.033 153.744 390.894 152.372 L 389.755 151 375.437 151 L 361.118 151 360.572 151.884 L 360.025 152.768 357.974 163.634 L 355.922 174.500 355.437 175.893 L 354.953 177.286 354.492 176.826 L 354.032 176.365 351.884 164.933 L 349.736 153.500 348.745 152.250 L 347.755 151 333.846 151 L 319.937 151 319.226 152.750 M 458.464 152.234 L 457.967 153.528 458.233 181.014 L 458.500 208.500 466.907 208.793 L 475.314 209.086 476.273 208.127 L 477.233 207.167 477.761 196.028 L 478.289 184.889 479.083 185.694 L 479.878 186.500 482.998 195 L 486.118 203.500 487.602 205.780 L 489.086 208.061 501.293 207.780 L 513.500 207.500 513.500 179.500 L 513.500 151.500 505 151.500 L 496.500 151.500 495.985 165.500 L 495.470 179.500 494.187 176.500 L 492.904 173.500 488.695 162.500 L 484.487 151.500 471.723 151.220 L 458.960 150.940 458.464 152.234 M 536.568 152.830 L 531.636 154.627 527.214 158.474 L 522.791 162.321 520.775 166.911 L 518.758 171.500 518.756 180.029 L 518.755 188.559 521.017 193.817 L 523.279 199.075 527.779 203.037 L 532.280 206.998 536.390 208.249 L 540.500 209.500 554.500 209.476 L 568.500 209.451 572.342 208.118 L 576.184 206.784 577.292 207.892 L 578.400 209 588.078 209 L 597.755 209 598.762 207.750 L 599.769 206.500 600.464 203.250 L 601.159 200 608.437 200 L 615.716 200 616.611 204.250 L 617.505 208.500 628.771 208.783 L 640.037 209.066 640.645 207.482 L 641.253 205.898 632.376 179.199 L 623.500 152.500 609.030 152.500 L 594.561 152.500 591.851 160 L 589.142 167.500 583.321 185.500 L 577.500 203.500 577 190 L 576.500 176.500 563.500 176.500 L 550.500 176.500 550.500 182.500 L 550.500 188.500 553.750 188.813 L 557 189.127 557 191.563 L 557 194 551.750 193.985 L 546.500 193.969 545.353 193.235 L 544.207 192.500 543.023 188.095 L 541.840 183.690 542.517 177.857 L 543.194 172.024 545.169 169.512 L 547.145 167 549.418 167 L 551.690 167 553.531 169.034 L 555.371 171.068 564.936 170.784 L 574.500 170.500 574.807 166.810 L 575.114 163.120 573.529 160.056 L 571.944 156.991 567.887 154.307 L 563.831 151.622 552.665 151.328 L 541.500 151.033 536.568 152.830 M 669.306 152.615 L 668.571 154.500 668.535 181.500 L 668.500 208.500 680 208.500 L 691.500 208.500 691.786 198.750 L 692.072 189 695.500 189 L 698.928 189 699.214 198.750 L 699.500 208.500 710.500 208.500 L 721.500 208.500 721.500 180 L 721.500 151.500 711 151.500 L 700.500 151.500 700.214 161.250 L 699.928 171 695.464 171 L 691 171 691 162.059 L 691 153.118 689.858 152.412 L 688.716 151.706 679.378 151.218 L 670.041 150.730 669.306 152.615 M 729.702 151.717 L 729.245 152.500 728.872 180.500 L 728.500 208.500 740 208.500 L 751.500 208.500 751.500 180 L 751.500 151.500 740.829 151.217 L 730.159 150.934 729.702 151.717 M 759.464 152.234 L 758.967 153.528 759.233 181.014 L 759.500 208.500 769 208.500 L 778.500 208.500 779.053 195.500 L 779.605 182.500 780.374 184.500 L 781.142 186.500 785.321 197 L 789.500 207.500 802 207.500 L 814.500 207.500 814.500 179.500 L 814.500 151.500 806 151.500 L 797.500 151.500 797.218 163.323 L 796.935 175.145 795.718 174.751 L 794.500 174.356 791.249 165.428 L 787.998 156.500 786.712 154 L 785.427 151.500 772.694 151.220 L 759.960 150.940 759.464 152.234 M 898.708 152.472 L 894.915 153.925 890.727 156.737 L 886.539 159.550 883.519 165.458 L 880.500 171.365 880.537 180.432 L 880.575 189.500 882.836 194.488 L 885.098 199.475 887.299 201.835 L 889.500 204.195 893 205.962 L 896.500 207.728 901.912 209.003 L 907.323 210.277 919.544 209.749 L 931.766 209.221 934.610 207.858 L 937.455 206.495 938.262 201.681 L 939.069 196.868 938.784 186.684 L 938.500 176.500 925 176.500 L 911.500 176.500 911.500 182.500 L 911.500 188.500 915.250 188.810 L 919 189.121 919 191.560 L 919 194 913.485 194 L 907.971 194 905.933 190.750 L 903.896 187.500 904.236 180.500 L 904.575 173.500 906.045 170.500 L 907.514 167.500 911.127 167.197 L 914.739 166.895 915.285 168.983 L 915.832 171.072 926.166 170.786 L 936.500 170.500 936.802 166.895 L 937.103 163.290 934.972 159.677 L 932.841 156.065 929.225 153.830 L 925.609 151.595 914.055 151.308 L 902.500 151.020 898.708 152.472 M 409.675 152.750 L 409.232 153.500 401.532 176.984 L 393.832 200.467 393.666 204.484 L 393.500 208.500 404 208.500 L 414.500 208.500 415.631 205 L 416.762 201.500 424 201.500 L 431.238 201.500 432.369 205 L 433.500 208.500 444.500 208.500 L 455.500 208.500 455.803 206.377 L 456.106 204.254 447.939 179.377 L 439.771 154.500 438.763 153.250 L 437.755 152 423.937 152 L 410.118 152 409.675 152.750 M 421.521 172.750 L 419.675 180.500 419.015 184 L 418.355 187.500 424.178 187.161 L 430 186.822 430 186.477 L 430 186.131 428.478 178.815 L 426.955 171.500 425.900 168.250 L 424.845 165 424.105 165 L 423.366 165 421.521 172.750 M 606.187 172.750 L 604.154 180.500 603.498 183.750 L 602.841 187 608.534 187 L 614.227 187 613.538 182.250 L 612.849 177.500 611.303 171.250 L 609.757 165 608.988 165 L 608.219 165 606.187 172.750 M 844.191 167.485 L 842.236 169.969 841.535 176.515 L 840.834 183.060 841.513 187.280 L 842.192 191.500 843.619 193.750 L 845.046 196 847.441 196 L 849.836 196 851.455 195.379 L 853.074 194.758 854.537 191.928 L 856 189.099 856 179.685 L 856 170.270 853.927 167.635 L 851.855 165 849 165 L 846.145 165 844.191 167.485" stroke="none" fill="#040404" fill-rule="evenodd"/><path d="M 592.951 46.311 L 588.401 47.589 584.951 49.724 L 581.500 51.860 578.840 54.680 L 576.179 57.500 573.852 62 L 571.524 66.500 571.148 73.836 L 570.773 81.173 571.717 82.117 L 572.662 83.062 580.191 79.487 L 587.719 75.911 594.360 74.877 L 601 73.844 607.511 74.857 L 614.022 75.871 621.621 79.526 L 629.219 83.181 630.297 82.103 L 631.375 81.025 631.351 74.763 L 631.327 68.500 629.050 63.273 L 626.773 58.046 622.312 53.934 L 617.851 49.822 613.676 47.982 L 609.500 46.143 603.500 45.588 L 597.500 45.032 592.951 46.311 M 585.730 80.357 L 579.960 82.793 576.480 85.447 L 573 88.102 573 88.572 L 573 89.043 575.686 93.101 L 578.371 97.159 582.576 100.052 L 586.780 102.945 592.349 104.722 L 597.919 106.500 598.209 118 L 598.500 129.500 601 129.500 L 603.500 129.500 604 118.136 L 604.500 106.772 610.563 104.580 L 616.626 102.387 620.203 99.659 L 623.781 96.930 626.471 92.865 L 629.161 88.800 627.001 86.501 L 624.841 84.202 618.670 81.423 L 612.500 78.645 602 78.283 L 591.500 77.920 585.730 80.357" stroke="none" fill="#dc0474" fill-rule="evenodd"/></svg>